<?xml version="1.0" encoding="UTF-8"?>
<svg xmlns="http://www.w3.org/2000/svg" viewBox="0 0 512 512" role="img" aria-labelledby="title">
  <title id="title">Data Bars 019</title>
  <defs>
    <linearGradient id="paint" x1="0" y1="0" x2="1" y2="1"><stop stop-color="#00A6FB"/><stop offset="1" stop-color="#00D4A8"/></linearGradient>
    <linearGradient id="paint-reverse" x1="1" y1="0" x2="0" y2="1"><stop stop-color="#00D4A8"/><stop offset="1" stop-color="#00A6FB"/></linearGradient>
    <radialGradient id="halo"><stop stop-color="#E8FBFF"/><stop offset=".34" stop-color="#7AE7FF"/><stop offset="1" stop-color="#00D4A8"/></radialGradient>
    <filter id="soft-shadow" x="-40%" y="-40%" width="180%" height="180%"><feDropShadow dx="0" dy="12" stdDeviation="12" flood-color="#052A45" flood-opacity=".24"/></filter>
    <filter id="soft-glow" x="-60%" y="-60%" width="220%" height="220%"><feGaussianBlur stdDeviation="8" result="blur"/><feMerge><feMergeNode in="blur"/><feMergeNode in="SourceGraphic"/></feMerge></filter>
  </defs>
  <g filter="url(#soft-shadow)"><rect x="51" y="206.73" width="41.32" height="223.27" rx="12.28" fill="url(#paint)" opacity="0.73"/><rect x="103.67" y="259.36" width="41.32" height="170.64" rx="15.84" fill="url(#paint-reverse)" opacity="0.56"/><rect x="156.34" y="143.64" width="41.32" height="286.36" rx="19.49" fill="url(#paint)" opacity="0.85"/><rect x="209.01" y="94.76" width="41.32" height="335.24" rx="19.52" fill="url(#paint-reverse)" opacity="0.59"/><rect x="261.67" y="138.11" width="41.32" height="291.89" rx="10.93" fill="url(#paint)" opacity="0.59"/><rect x="314.34" y="252.57" width="41.32" height="177.43" rx="10.4" fill="url(#paint-reverse)" opacity="0.86"/><rect x="367.01" y="194.87" width="41.32" height="235.13" rx="19.32" fill="url(#paint)" opacity="0.7"/><rect x="419.68" y="121.01" width="41.32" height="308.99" rx="19.17" fill="url(#paint-reverse)" opacity="0.72"/><polyline points="71.66,180.28 124.33,239.29 177,122.53 229.67,54.9 282.33,118.57 335,229.16 387.67,164.98 440.34,86.41" fill="none" stroke="#E8FBFF" stroke-width="8" stroke-linecap="round" stroke-linejoin="round"/><circle cx="71.66" cy="180.28" r="8" fill="#052A45" stroke="#E8FBFF" stroke-width="4"/><circle cx="124.33" cy="239.29" r="8" fill="#052A45" stroke="#E8FBFF" stroke-width="4"/><circle cx="177" cy="122.53" r="8" fill="#052A45" stroke="#E8FBFF" stroke-width="4"/><circle cx="229.67" cy="54.9" r="8" fill="#052A45" stroke="#E8FBFF" stroke-width="4"/><circle cx="282.33" cy="118.57" r="8" fill="#052A45" stroke="#E8FBFF" stroke-width="4"/><circle cx="335" cy="229.16" r="8" fill="#052A45" stroke="#E8FBFF" stroke-width="4"/><circle cx="387.67" cy="164.98" r="8" fill="#052A45" stroke="#E8FBFF" stroke-width="4"/><circle cx="440.34" cy="86.41" r="8" fill="#052A45" stroke="#E8FBFF" stroke-width="4"/></g>
</svg>
