<?xml version="1.0" encoding="UTF-8"?>
<svg xmlns="http://www.w3.org/2000/svg" viewBox="0 0 512 512" role="img" aria-labelledby="title">
  <title id="title">Connected Network 026</title>
  <defs>
    <linearGradient id="paint" x1="0" y1="0" x2="1" y2="1"><stop stop-color="#25A66A"/><stop offset="1" stop-color="#B8D95A"/></linearGradient>
    <linearGradient id="paint-reverse" x1="1" y1="0" x2="0" y2="1"><stop stop-color="#B8D95A"/><stop offset="1" stop-color="#25A66A"/></linearGradient>
    <radialGradient id="halo"><stop stop-color="#F4FFD8"/><stop offset=".34" stop-color="#A8F0B8"/><stop offset="1" stop-color="#B8D95A"/></radialGradient>
    <filter id="soft-shadow" x="-40%" y="-40%" width="180%" height="180%"><feDropShadow dx="0" dy="12" stdDeviation="12" flood-color="#143526" flood-opacity=".24"/></filter>
    <filter id="soft-glow" x="-60%" y="-60%" width="220%" height="220%"><feGaussianBlur stdDeviation="8" result="blur"/><feMerge><feMergeNode in="blur"/><feMergeNode in="SourceGraphic"/></feMerge></filter>
  </defs>
  <g filter="url(#soft-shadow)"><path d="M357.57 238.17Q363.48 174.8 353.47 89.75" fill="none" stroke="#B8D95A" stroke-width="6.13" opacity="0.58"/><path d="M357.57 238.17Q357.61 232.09 385.88 210.57" fill="none" stroke="#B8D95A" stroke-width="3.15" opacity="0.47"/><path d="M353.47 89.75Q311.67 158 252.03 262.32" fill="none" stroke="#25A66A" stroke-width="6.29" opacity="0.31"/><path d="M353.47 89.75Q215.55 246.74 83.7 413.5" fill="none" stroke="#25A66A" stroke-width="5.31" opacity="0.49"/><path d="M252.03 262.32Q321.89 209.87 385.88 210.57" fill="none" stroke="#B8D95A" stroke-width="5.36" opacity="0.57"/><path d="M252.03 262.32Q163.74 315.63 83.7 413.5" fill="none" stroke="#B8D95A" stroke-width="5.37" opacity="0.46"/><path d="M385.88 210.57Q278.46 221.86 154 227.62" fill="none" stroke="#25A66A" stroke-width="7.17" opacity="0.54"/><path d="M385.88 210.57Q354.63 168.51 335.42 195.36" fill="none" stroke="#25A66A" stroke-width="5.89" opacity="0.53"/><path d="M154 227.62Q104.33 314.44 83.7 413.5" fill="none" stroke="#B8D95A" stroke-width="7.61" opacity="0.51"/><path d="M154 227.62Q187.36 302.95 186.79 351.73" fill="none" stroke="#B8D95A" stroke-width="3.72" opacity="0.47"/><path d="M83.7 413.5Q144.96 302.37 146.49 128.19" fill="none" stroke="#25A66A" stroke-width="4.34" opacity="0.43"/><path d="M83.7 413.5Q178.05 275 335.42 195.36" fill="none" stroke="#25A66A" stroke-width="6" opacity="0.4"/><path d="M146.49 128.19Q223.61 180.45 335.42 195.36" fill="none" stroke="#B8D95A" stroke-width="6.69" opacity="0.4"/><path d="M146.49 128.19Q265.25 201.7 318.05 215.53" fill="none" stroke="#B8D95A" stroke-width="7.78" opacity="0.38"/><path d="M335.42 195.36Q247.72 256.04 186.79 351.73" fill="none" stroke="#25A66A" stroke-width="3.06" opacity="0.52"/><path d="M335.42 195.36Q405.76 288.65 455.42 423.79" fill="none" stroke="#25A66A" stroke-width="6.13" opacity="0.32"/><path d="M186.79 351.73Q247.65 295.06 318.05 215.53" fill="none" stroke="#B8D95A" stroke-width="6.12" opacity="0.32"/><path d="M186.79 351.73Q267.92 248.38 353.47 89.75" fill="none" stroke="#B8D95A" stroke-width="6.73" opacity="0.35"/><path d="M318.05 215.53Q376.41 318.29 455.42 423.79" fill="none" stroke="#25A66A" stroke-width="4.79" opacity="0.36"/><path d="M318.05 215.53Q332.49 237.03 385.88 210.57" fill="none" stroke="#25A66A" stroke-width="6.39" opacity="0.49"/><path d="M455.42 423.79Q424.82 317.94 357.57 238.17" fill="none" stroke="#B8D95A" stroke-width="5.59" opacity="0.39"/><path d="M455.42 423.79Q394.77 331.13 385.88 210.57" fill="none" stroke="#B8D95A" stroke-width="4.84" opacity="0.61"/><circle cx="357.57" cy="238.17" r="22.17" fill="#F4FFD8" stroke="#143526" stroke-width="5"/><circle cx="353.47" cy="89.75" r="11.67" fill="url(#halo)" stroke="#143526" stroke-width="5"/><circle cx="252.03" cy="262.32" r="15.57" fill="#F4FFD8" stroke="#143526" stroke-width="5"/><circle cx="385.88" cy="210.57" r="17.94" fill="url(#halo)" stroke="#143526" stroke-width="5"/><circle cx="154" cy="227.62" r="13.57" fill="#F4FFD8" stroke="#143526" stroke-width="5"/><circle cx="83.7" cy="413.5" r="24.77" fill="url(#halo)" stroke="#143526" stroke-width="5"/><circle cx="146.49" cy="128.19" r="14.31" fill="#F4FFD8" stroke="#143526" stroke-width="5"/><circle cx="335.42" cy="195.36" r="23.33" fill="url(#halo)" stroke="#143526" stroke-width="5"/><circle cx="186.79" cy="351.73" r="18.88" fill="#F4FFD8" stroke="#143526" stroke-width="5"/><circle cx="318.05" cy="215.53" r="19.04" fill="url(#halo)" stroke="#143526" stroke-width="5"/><circle cx="455.42" cy="423.79" r="13.76" fill="#F4FFD8" stroke="#143526" stroke-width="5"/></g>
</svg>
