<?xml version="1.0" encoding="UTF-8"?>
<svg xmlns="http://www.w3.org/2000/svg" viewBox="0 0 512 512" role="img" aria-labelledby="title">
  <title id="title">Celebration Confetti 049</title>
  <defs>
    <linearGradient id="paint" x1="0" y1="0" x2="1" y2="1"><stop stop-color="#A7FF4F"/><stop offset="1" stop-color="#42D9FF"/></linearGradient>
    <linearGradient id="paint-reverse" x1="1" y1="0" x2="0" y2="1"><stop stop-color="#42D9FF"/><stop offset="1" stop-color="#A7FF4F"/></linearGradient>
    <radialGradient id="halo"><stop stop-color="#F4FFF0"/><stop offset=".34" stop-color="#C8FF8A"/><stop offset="1" stop-color="#42D9FF"/></radialGradient>
    <filter id="soft-shadow" x="-40%" y="-40%" width="180%" height="180%"><feDropShadow dx="0" dy="12" stdDeviation="12" flood-color="#102B35" flood-opacity=".24"/></filter>
    <filter id="soft-glow" x="-60%" y="-60%" width="220%" height="220%"><feGaussianBlur stdDeviation="8" result="blur"/><feMerge><feMergeNode in="blur"/><feMergeNode in="SourceGraphic"/></feMerge></filter>
  </defs>
  <g filter="url(#soft-shadow)"><circle cx="423.71" cy="136.46" r="9.14" fill="#F4FFF0"/><rect x="356.02" y="233.06" width="9.54" height="36.36" rx="4" transform="rotate(330.95 362.02 249.06)" fill="#A7FF4F"/><polygon points="60.76,307.12 73.72,333.04 47.8,333.04" transform="rotate(293.88 60.76 320.08)" fill="#42D9FF"/><path d="M182.78 282.55Q200.78 252.55 218.78 282.55" fill="none" stroke="#F4FFF0" stroke-width="5.08" stroke-linecap="round"/><circle cx="72.24" cy="331.64" r="9.43" fill="#42D9FF"/><rect x="376.56" y="451.54" width="9.7" height="32.95" rx="4" transform="rotate(274.54 382.56 467.54)" fill="#A7FF4F"/><polygon points="216.01,19.19 237.67,62.51 194.35,62.51" transform="rotate(292.72 216.01 40.85)" fill="#F4FFF0"/><path d="M441.24 437.96Q459.24 407.96 477.24 437.96" fill="none" stroke="#A7FF4F" stroke-width="7.84" stroke-linecap="round"/><circle cx="84.14" cy="307.93" r="8.44" fill="#42D9FF"/><rect x="449.16" y="350.97" width="16.09" height="36.37" rx="4" transform="rotate(353.89 455.16 366.97)" fill="#F4FFF0"/><polygon points="443.2,151.57 465.08,195.33 421.32,195.33" transform="rotate(31.49 443.2 173.45)" fill="#42D9FF"/><path d="M119.23 330.22Q137.23 300.22 155.23 330.22" fill="none" stroke="#A7FF4F" stroke-width="6.71" stroke-linecap="round"/><circle cx="77.11" cy="399.82" r="9.7" fill="#F4FFF0"/><rect x="95.86" y="112.89" width="15.41" height="43.46" rx="4" transform="rotate(124.38 101.86 128.89)" fill="#A7FF4F"/><polygon points="418.2,379.18 439.61,421.99 396.8,421.99" transform="rotate(111.06 418.2 400.59)" fill="#42D9FF"/><path d="M45.84 345.44Q63.84 315.44 81.84 345.44" fill="none" stroke="#F4FFF0" stroke-width="9.82" stroke-linecap="round"/><circle cx="444.43" cy="230.92" r="5.56" fill="#42D9FF"/><rect x="389.03" y="342.93" width="17.39" height="40.01" rx="4" transform="rotate(126.19 395.03 358.93)" fill="#A7FF4F"/><polygon points="86.89,106.73 106.83,146.61 66.95,146.61" transform="rotate(136.07 86.89 126.67)" fill="#F4FFF0"/><path d="M278.65 402.91Q296.65 372.91 314.65 402.91" fill="none" stroke="#A7FF4F" stroke-width="9.56" stroke-linecap="round"/><circle cx="311.94" cy="201.4" r="10.02" fill="#42D9FF"/><rect x="111.46" y="203.05" width="13.59" height="28.75" rx="4" transform="rotate(220.94 117.46 219.05)" fill="#F4FFF0"/><polygon points="151.48,135.32 171.52,175.41 131.43,175.41" transform="rotate(131.62 151.48 155.36)" fill="#42D9FF"/><path d="M367.31 315.58Q385.31 285.58 403.31 315.58" fill="none" stroke="#A7FF4F" stroke-width="10.33" stroke-linecap="round"/><circle cx="121" cy="257.1" r="9.59" fill="#F4FFF0"/><rect x="345.96" y="300.96" width="15.53" height="43.77" rx="4" transform="rotate(219.98 351.96 316.96)" fill="#A7FF4F"/><polygon points="355.63,71.14 375.68,111.24 335.58,111.24" transform="rotate(133.51 355.63 91.19)" fill="#42D9FF"/><path d="M212.64 471.79Q230.64 441.79 248.64 471.79" fill="none" stroke="#F4FFF0" stroke-width="7.62" stroke-linecap="round"/><circle cx="117.01" cy="40.83" r="14.02" fill="#42D9FF"/><rect x="260.07" y="207.16" width="9.37" height="30.2" rx="4" transform="rotate(237.07 266.07 223.16)" fill="#A7FF4F"/><polygon points="466.39,333.7 488.38,377.68 444.41,377.68" transform="rotate(104.16 466.39 355.69)" fill="#F4FFF0"/><path d="M29.43 349.96Q47.43 319.96 65.43 349.96" fill="none" stroke="#A7FF4F" stroke-width="6.67" stroke-linecap="round"/><circle cx="319.69" cy="310.36" r="14.28" fill="#42D9FF"/><rect x="164.44" y="453.59" width="17.67" height="24.17" rx="4" transform="rotate(166.17 170.44 469.59)" fill="#F4FFF0"/><polygon points="231.7,343.56 242.42,365.02 220.97,365.02" transform="rotate(241.57 231.7 354.29)" fill="#42D9FF"/><path d="M184.47 157.81Q202.47 127.81 220.47 157.81" fill="none" stroke="#A7FF4F" stroke-width="8.64" stroke-linecap="round"/><circle cx="106.13" cy="67.65" r="11.12" fill="#F4FFF0"/><rect x="146.65" y="218.66" width="10.47" height="43.3" rx="4" transform="rotate(35.14 152.65 234.66)" fill="#A7FF4F"/><polygon points="78.05,253.54 95.39,288.22 60.71,288.22" transform="rotate(135.98 78.05 270.88)" fill="#42D9FF"/><path d="M231.74 331.53Q249.74 301.53 267.74 331.53" fill="none" stroke="#F4FFF0" stroke-width="9.03" stroke-linecap="round"/><circle cx="193.08" cy="300.41" r="9.82" fill="#42D9FF"/><rect x="77.14" y="315.06" width="15.82" height="31.03" rx="4" transform="rotate(20.28 83.14 331.06)" fill="#A7FF4F"/><polygon points="79.68,431.82 93.63,459.72 65.73,459.72" transform="rotate(61.53 79.68 445.77)" fill="#F4FFF0"/><path d="M145.47 364.71Q163.47 334.71 181.47 364.71" fill="none" stroke="#A7FF4F" stroke-width="10.66" stroke-linecap="round"/><circle cx="257.7" cy="435.27" r="9.29" fill="#42D9FF"/></g>
</svg>
