<?xml version="1.0" encoding="UTF-8"?>
<svg xmlns="http://www.w3.org/2000/svg" viewBox="0 0 512 512" role="img" aria-labelledby="title">
  <title id="title">Speech Stack 037</title>
  <defs>
    <linearGradient id="paint" x1="0" y1="0" x2="1" y2="1"><stop stop-color="#C45BFF"/><stop offset="1" stop-color="#FF5DA2"/></linearGradient>
    <linearGradient id="paint-reverse" x1="1" y1="0" x2="0" y2="1"><stop stop-color="#FF5DA2"/><stop offset="1" stop-color="#C45BFF"/></linearGradient>
    <radialGradient id="halo"><stop stop-color="#FFF1FB"/><stop offset=".34" stop-color="#E7A3FF"/><stop offset="1" stop-color="#FF5DA2"/></radialGradient>
    <filter id="soft-shadow" x="-40%" y="-40%" width="180%" height="180%"><feDropShadow dx="0" dy="12" stdDeviation="12" flood-color="#261039" flood-opacity=".24"/></filter>
    <filter id="soft-glow" x="-60%" y="-60%" width="220%" height="220%"><feGaussianBlur stdDeviation="8" result="blur"/><feMerge><feMergeNode in="blur"/><feMergeNode in="SourceGraphic"/></feMerge></filter>
  </defs>
  <g filter="url(#soft-shadow)"><g><rect x="154.78" y="52" width="195.27" height="89.99" rx="38.09" fill="url(#paint)" opacity="0.81" stroke="#FFF1FB" stroke-width="4"/><path d="M277.37 137.99L329.37 175.83L313.37 137.99Z" fill="#C45BFF"/><circle cx="209.45" cy="96.99" r="8" fill="#FFF1FB"/><rect x="232.89" y="90.7" width="77.13" height="14" rx="7" fill="#261039" opacity=".65"/></g><g><rect x="281.56" y="232" width="191.32" height="124.37" rx="33.1" fill="url(#paint-reverse)" opacity="0.87" stroke="#FFF1FB" stroke-width="4"/><path d="M401.31 352.37L453.31 404.69L437.31 352.37Z" fill="#FF5DA2"/><circle cx="335.13" cy="294.19" r="8" fill="#FFF1FB"/><rect x="358.09" y="285.48" width="66.6" height="14" rx="7" fill="#261039" opacity=".65"/></g><g><rect x="57.54" y="412" width="208.55" height="120.97" rx="44.48" fill="url(#paint)" opacity="0.66" stroke="#FFF1FB" stroke-width="4"/><path d="M189.7 528.97L241.7 583.33L225.7 528.97Z" fill="#C45BFF"/><circle cx="115.93" cy="472.48" r="8" fill="#FFF1FB"/><rect x="140.96" y="464.02" width="63.49" height="14" rx="7" fill="#261039" opacity=".65"/></g></g>
</svg>
