<?xml version="1.0" encoding="UTF-8"?>
<svg xmlns="http://www.w3.org/2000/svg" viewBox="0 0 512 512" role="img" aria-labelledby="title">
  <title id="title">Ticket Frame 044</title>
  <defs>
    <linearGradient id="paint" x1="0" y1="0" x2="1" y2="1"><stop stop-color="#FF6B63"/><stop offset="1" stop-color="#52E0B5"/></linearGradient>
    <linearGradient id="paint-reverse" x1="1" y1="0" x2="0" y2="1"><stop stop-color="#52E0B5"/><stop offset="1" stop-color="#FF6B63"/></linearGradient>
    <radialGradient id="halo"><stop stop-color="#FFF8F0"/><stop offset=".34" stop-color="#FFC0A8"/><stop offset="1" stop-color="#52E0B5"/></radialGradient>
    <filter id="soft-shadow" x="-40%" y="-40%" width="180%" height="180%"><feDropShadow dx="0" dy="12" stdDeviation="12" flood-color="#43202A" flood-opacity=".24"/></filter>
    <filter id="soft-glow" x="-60%" y="-60%" width="220%" height="220%"><feGaussianBlur stdDeviation="8" result="blur"/><feMerge><feMergeNode in="blur"/><feMergeNode in="SourceGraphic"/></feMerge></filter>
  </defs>
  <g filter="url(#soft-shadow)"><path d="M95.14 86.29H416.86Q450.86 86.29 450.86 120.29V226.71A29.29 29.29 0 0 0 450.86 285.29V391.71Q450.86 425.71 416.86 425.71H95.14Q61.14 425.71 61.14 391.71V285.29A29.29 29.29 0 0 0 61.14 226.71V120.29Q61.14 86.29 95.14 86.29Z" fill="url(#paint)" opacity=".66" stroke="#43202A" stroke-width="7"/><path d="M106.14 256H405.86" stroke="#FFF8F0" stroke-width="5" stroke-linecap="round" opacity=".72"/><circle cx="109.85" cy="256" r="13.04" fill="#52E0B5"/><circle cx="158.57" cy="256" r="9.14" fill="#FF6B63"/><circle cx="207.28" cy="256" r="9.89" fill="#52E0B5"/></g>
</svg>
