<?xml version="1.0" encoding="UTF-8"?>
<svg xmlns="http://www.w3.org/2000/svg" viewBox="0 0 512 512" role="img" aria-labelledby="title">
  <title id="title">Pulse Burst 015</title>
  <defs>
    <linearGradient id="paint" x1="0" y1="0" x2="1" y2="1"><stop stop-color="#F04E35"/><stop offset="1" stop-color="#2B77D1"/></linearGradient>
    <linearGradient id="paint-reverse" x1="1" y1="0" x2="0" y2="1"><stop stop-color="#2B77D1"/><stop offset="1" stop-color="#F04E35"/></linearGradient>
    <radialGradient id="halo"><stop stop-color="#FFF2ED"/><stop offset=".34" stop-color="#FF9A83"/><stop offset="1" stop-color="#2B77D1"/></radialGradient>
    <filter id="soft-shadow" x="-40%" y="-40%" width="180%" height="180%"><feDropShadow dx="0" dy="12" stdDeviation="12" flood-color="#242846" flood-opacity=".24"/></filter>
    <filter id="soft-glow" x="-60%" y="-60%" width="220%" height="220%"><feGaussianBlur stdDeviation="8" result="blur"/><feMerge><feMergeNode in="blur"/><feMergeNode in="SourceGraphic"/></feMerge></filter>
  </defs>
  <g filter="url(#soft-shadow)"><path d="M331.87 252.68L416.96 248.97" stroke="#FFF2ED" stroke-width="7.16" stroke-linecap="round" opacity="0.78"/><path d="M311.81 275.76L453.79 326.04" stroke="url(#paint)" stroke-width="13.25" stroke-linecap="round" opacity="0.94"/><path d="M308.09 291.33L417.47 365.5" stroke="url(#paint)" stroke-width="14.71" stroke-linecap="round" opacity="0.65"/><path d="M295.77 305.41L367.99 395.14" stroke="#FFF2ED" stroke-width="10.87" stroke-linecap="round" opacity="0.85"/><path d="M284.95 313.45L335.77 414.27" stroke="url(#paint)" stroke-width="6.39" stroke-linecap="round" opacity="0.88"/><path d="M267.12 319.6L290.71 454.54" stroke="url(#paint)" stroke-width="12.32" stroke-linecap="round" opacity="0.65"/><path d="M245.44 318.65L223.89 446.4" stroke="#FFF2ED" stroke-width="17.2" stroke-linecap="round" opacity="0.7"/><path d="M223.5 326.08L179.85 420.17" stroke="url(#paint)" stroke-width="8.28" stroke-linecap="round" opacity="0.65"/><path d="M216.94 304.15L134.42 405.86" stroke="url(#paint)" stroke-width="7.25" stroke-linecap="round" opacity="0.74"/><path d="M191.88 299.22L94.35 364.97" stroke="#FFF2ED" stroke-width="16.28" stroke-linecap="round" opacity="0.99"/><path d="M191.53 273.27L96.85 298.63" stroke="url(#paint)" stroke-width="17.69" stroke-linecap="round" opacity="0.78"/><path d="M180.84 252.87L91.38 249.14" stroke="url(#paint)" stroke-width="15.41" stroke-linecap="round" opacity="0.93"/><path d="M181.43 234.88L82.09 206.75" stroke="#FFF2ED" stroke-width="16.27" stroke-linecap="round" opacity="0.86"/><path d="M194.44 217.88L115.73 169.13" stroke="url(#paint)" stroke-width="15.36" stroke-linecap="round" opacity="0.92"/><path d="M214.58 204.89L121.43 89.96" stroke="url(#paint)" stroke-width="10.87" stroke-linecap="round" opacity="0.63"/><path d="M227.95 190.81L183.63 87.8" stroke="#FFF2ED" stroke-width="15.89" stroke-linecap="round" opacity="0.74"/><path d="M245.59 180.16L229.71 64.47" stroke="url(#paint)" stroke-width="15.46" stroke-linecap="round" opacity="0.85"/><path d="M264.3 190.16L276.79 91.17" stroke="url(#paint)" stroke-width="8.65" stroke-linecap="round" opacity="0.93"/><path d="M286.56 184.56L341.9 55.21" stroke="#FFF2ED" stroke-width="8.51" stroke-linecap="round" opacity="0.91"/><path d="M305.46 202.28L399.81 99.82" stroke="url(#paint)" stroke-width="17.47" stroke-linecap="round" opacity="0.92"/><path d="M317.19 220.83L436.2 152.41" stroke="url(#paint)" stroke-width="14.22" stroke-linecap="round" opacity="0.97"/><path d="M324.48 238.03L401.86 217.72" stroke="#FFF2ED" stroke-width="12.19" stroke-linecap="round" opacity="0.78"/><polygon points="298.54,256 306.75,292.87 276.27,318.37 235.87,317.96 217.24,284.16 187.57,256 221.98,231.29 239.81,206.17 277.6,189.53 314.11,213.78" fill="url(#halo)" stroke="#242846" stroke-width="6"/></g>
</svg>
