<?xml version="1.0" encoding="UTF-8"?>
<svg xmlns="http://www.w3.org/2000/svg" viewBox="0 0 512 512" role="img" aria-labelledby="title">
  <title id="title">Pulse Burst 013</title>
  <defs>
    <linearGradient id="paint" x1="0" y1="0" x2="1" y2="1"><stop stop-color="#25A66A"/><stop offset="1" stop-color="#B8D95A"/></linearGradient>
    <linearGradient id="paint-reverse" x1="1" y1="0" x2="0" y2="1"><stop stop-color="#B8D95A"/><stop offset="1" stop-color="#25A66A"/></linearGradient>
    <radialGradient id="halo"><stop stop-color="#F4FFD8"/><stop offset=".34" stop-color="#A8F0B8"/><stop offset="1" stop-color="#B8D95A"/></radialGradient>
    <filter id="soft-shadow" x="-40%" y="-40%" width="180%" height="180%"><feDropShadow dx="0" dy="12" stdDeviation="12" flood-color="#143526" flood-opacity=".24"/></filter>
    <filter id="soft-glow" x="-60%" y="-60%" width="220%" height="220%"><feGaussianBlur stdDeviation="8" result="blur"/><feMerge><feMergeNode in="blur"/><feMergeNode in="SourceGraphic"/></feMerge></filter>
  </defs>
  <g filter="url(#soft-shadow)"><path d="M339.89 253.08L406.45 250.76" stroke="#F4FFD8" stroke-width="13.92" stroke-linecap="round" opacity="1"/><path d="M345.05 300.19L414.94 334.87" stroke="url(#paint)" stroke-width="14.14" stroke-linecap="round" opacity="0.91"/><path d="M316.22 336.26L347.7 378.22" stroke="url(#paint)" stroke-width="17.27" stroke-linecap="round" opacity="0.83"/><path d="M262.05 341.15L271.16 469.44" stroke="#F4FFD8" stroke-width="14.12" stroke-linecap="round" opacity="0.62"/><path d="M226.84 336.19L187.24 445.07" stroke="url(#paint)" stroke-width="9.96" stroke-linecap="round" opacity="0.65"/><path d="M185.04 314.34L127.65 361.52" stroke="url(#paint)" stroke-width="12" stroke-linecap="round" opacity="0.99"/><path d="M161.03 281.07L70.6 304.94" stroke="#F4FFD8" stroke-width="6.68" stroke-linecap="round" opacity="0.66"/><path d="M173.56 231L72.9 200.48" stroke="url(#paint)" stroke-width="12.11" stroke-linecap="round" opacity="0.77"/><path d="M190.72 199.13L114.87 133.05" stroke="url(#paint)" stroke-width="8.79" stroke-linecap="round" opacity="0.9"/><path d="M225.96 174.68L188.84 74.19" stroke="#F4FFD8" stroke-width="13.39" stroke-linecap="round" opacity="0.69"/><path d="M269.58 166.07L285.49 60.72" stroke="url(#paint)" stroke-width="7" stroke-linecap="round" opacity="0.68"/><path d="M303.31 182.26L347.46 113.44" stroke="url(#paint)" stroke-width="9.41" stroke-linecap="round" opacity="0.78"/><path d="M345.1 211.29L420.13 173.65" stroke="#F4FFD8" stroke-width="13.3" stroke-linecap="round" opacity="0.62"/><polygon points="315.32,256 306.69,306.69 256,308.28 214.93,297.07 194.18,256 207.91,207.91 256,194.2 292.32,219.68" fill="url(#halo)" stroke="#143526" stroke-width="6"/></g>
</svg>
